<svg fill="none" xmlns="http://www.w3.org/2000/svg" viewBox="0 0 88 88"> <g opacity="0.64" filter="url(#filter0_f_65_290)"> <circle cx="44" cy="60" r="20" fill="#0060FF"></circle> </g> <g filter="url(#filter1_b_65_290)"> <rect width="88" height="88" rx="8" fill="white" fill-opacity="0.08"></rect> <rect x="0.5" y="0.5" width="87" height="87" rx="7.5" stroke="#E9EBED" stroke-opacity="0.12"></rect> </g> <circle cx="44" cy="44" r="20" fill="url(#paint0_linear_65_290)"></circle> <path opacity="0.64" d="M51.7798 36.2202C53.0072 36.2202 54.0023 37.2152 54.0023 38.4427V48.4438C54.0023 49.6713 53.0072 50.6663 51.7798 50.6663H47.8905H46.9181H45.9458H44.0011H42.0565H40.1118H36.2225C34.995 50.6663 34 49.6713 34 48.4438V38.4427C34 37.2152 34.995 36.2202 36.2225 36.2202" stroke="#E9EAEC" stroke-width="1.5" stroke-linecap="round" stroke-linejoin="round"></path> <g opacity="0.8"> <path fill-rule="evenodd" clip-rule="evenodd" d="M40.6675 54H44.0012H47.3349" fill="#E9EAEC"></path> <path d="M40.6675 54H44.0012M47.3349 54H44.0012M44.0012 54V50.6663" stroke="#E9EAEC" stroke-width="1.5" stroke-linecap="round" stroke-linejoin="round"></path> </g> <g opacity="0.8"> <path d="M43.6653 34.2564L43.6653 34.2564L43.6673 34.2496C43.7644 33.9192 44.2352 33.9145 44.3352 34.2494L44.4084 34.5013L44.4088 34.5026C44.4863 34.7676 44.6223 35.0118 44.8066 35.2174C44.9909 35.4229 45.219 35.5845 45.4741 35.6903C45.7291 35.796 46.0046 35.8433 46.2803 35.8286C46.5558 35.8139 46.8246 35.7376 47.0668 35.6054C47.0669 35.6053 47.0671 35.6053 47.0672 35.6052L47.2994 35.4789L47.3 35.4785C47.6039 35.3128 47.939 35.6447 47.7744 35.9503C47.7742 35.9508 47.7739 35.9513 47.7736 35.9518L47.6472 36.181L47.6472 36.181L47.6452 36.1847C47.5134 36.4269 47.4375 36.6956 47.423 36.9709C47.4086 37.2463 47.456 37.5214 47.5617 37.776C47.6675 38.0307 47.8289 38.2585 48.0341 38.4426C48.2385 38.626 48.4812 38.7615 48.7445 38.8393L48.9975 38.9157L48.9975 38.9157L49.0028 38.9173C49.3315 39.0139 49.3365 39.4846 49.0039 39.585L48.7505 39.6577L48.7505 39.6576L48.7446 39.6594C48.4801 39.7376 48.2365 39.874 48.0316 40.0586C47.8267 40.2432 47.6658 40.4714 47.5606 40.7263C47.4554 40.9813 47.4086 41.2566 47.4237 41.5319C47.4388 41.807 47.5152 42.0752 47.6473 42.3169C47.6474 42.3172 47.6476 42.3175 47.6478 42.3178L47.7736 42.5491C47.9394 42.8541 47.6056 43.1886 47.3006 43.0244C47.3001 43.0242 47.2996 43.0239 47.2991 43.0236L47.0699 42.8972L47.0699 42.8972L47.0662 42.8952C46.824 42.7634 46.5554 42.6875 46.28 42.673C46.0046 42.6586 45.7295 42.706 45.4749 42.8117C45.2202 42.9175 44.9925 43.0789 44.8083 43.2841C44.6249 43.4885 44.4894 43.7312 44.4116 43.9946L44.3352 44.2475L44.3352 44.2475L44.3337 44.2528C44.237 44.5815 43.7664 44.5865 43.6659 44.2539L43.5933 44.0005L43.5933 44.0005L43.5915 43.9946C43.5133 43.7301 43.3769 43.4865 43.1923 43.2816C43.0077 43.0767 42.7795 42.9158 42.5246 42.8106C42.2696 42.7054 41.9944 42.6586 41.719 42.6737C41.4438 42.6888 41.1755 42.7652 40.9338 42.8974C40.9336 42.8975 40.9334 42.8976 40.9331 42.8978L40.7018 43.0236C40.3968 43.1894 40.0623 42.8556 40.2265 42.5506C40.2268 42.5501 40.227 42.5496 40.2273 42.5491L40.3537 42.3199L40.3537 42.3199L40.3558 42.3162C40.4875 42.074 40.5634 41.8053 40.5779 41.53C40.5923 41.2546 40.5449 40.9795 40.4392 40.7249C40.3334 40.4702 40.172 40.2425 39.9668 40.0583C39.7626 39.8751 39.5202 39.7397 39.2571 39.6618L39.0064 39.5856L39.0065 39.5856L38.9996 39.5836C38.6692 39.4866 38.6645 39.0157 38.9995 38.9157C38.9999 38.9156 39.0002 38.9154 39.0006 38.9153L39.2513 38.8425L39.2526 38.8421C39.5176 38.7646 39.7618 38.6287 39.9674 38.4443C40.1729 38.26 40.3345 38.0319 40.4403 37.7769C40.546 37.5218 40.5933 37.2463 40.5786 36.9706C40.5639 36.6952 40.4877 36.4265 40.3555 36.1843C40.3554 36.1841 40.3553 36.1839 40.3552 36.1837L40.2289 35.9516L40.2285 35.9509C40.0628 35.647 40.3947 35.312 40.7003 35.4765L40.931 35.6037L40.931 35.6037L40.9347 35.6058C41.1769 35.7375 41.4456 35.8134 41.7209 35.8279C41.9963 35.8423 42.2714 35.7949 42.526 35.6892C42.7807 35.5834 43.0085 35.422 43.1926 35.2168C43.3758 35.0126 43.5112 34.7702 43.5891 34.5072L43.6653 34.2564Z" stroke="#E9EAEC" stroke-width="1.5"></path> <circle cx="44" cy="39.2451" r="3.5" stroke="#E9EAEC"></circle> </g> <defs> <filter id="filter0_f_65_290" x="0" y="16" width="88" height="88" filterUnits="userSpaceOnUse" color-interpolation-filters="sRGB"> <feFlood flood-opacity="0" result="BackgroundImageFix"></feFlood> <feBlend mode="normal" in="SourceGraphic" in2="BackgroundImageFix" result="shape"></feBlend> <feGaussianBlur stdDeviation="12" result="effect1_foregroundBlur_65_290"></feGaussianBlur> </filter> <filter id="filter1_b_65_290" x="-24" y="-24" width="136" height="136" filterUnits="userSpaceOnUse" color-interpolation-filters="sRGB"> <feFlood flood-opacity="0" result="BackgroundImageFix"></feFlood> <feGaussianBlur in="BackgroundImageFix" stdDeviation="12"></feGaussianBlur> <feComposite in2="SourceAlpha" operator="in" result="effect1_backgroundBlur_65_290"></feComposite> <feBlend mode="normal" in="SourceGraphic" in2="effect1_backgroundBlur_65_290" result="shape"></feBlend> </filter> <linearGradient id="paint0_linear_65_290" x1="44" y1="24" x2="44" y2="64" gradientUnits="userSpaceOnUse"> <stop stop-color="#0060FF"></stop> <stop offset="1" stop-color="#478CFF"></stop> </linearGradient> </defs> </svg>