<svg fill="none" xmlns="http://www.w3.org/2000/svg" viewBox="0 0 88 88"> <g opacity="0.64" filter="url(#filter0_f_65_125)"> <circle cx="44" cy="60" r="20" fill="#0060FF"></circle> </g> <g filter="url(#filter1_b_65_125)"> <rect width="88" height="88" rx="8" fill="white" fill-opacity="0.08"></rect> <rect x="0.5" y="0.5" width="87" height="87" rx="7.5" stroke="#E9EBED" stroke-opacity="0.12"></rect> </g> <circle cx="44" cy="44" r="20" fill="url(#paint0_linear_65_125)"></circle> <rect opacity="0.8" x="34" y="34" width="20" height="20" rx="3" stroke="#E9EAEC" stroke-width="1.5"></rect> <path opacity="0.64" d="M36.25 36.25H36.75" stroke="#E9EAEC" stroke-width="1.5" stroke-linecap="round" stroke-linejoin="round"></path> <path opacity="0.64" d="M39 36.25H39.5" stroke="#E9EAEC" stroke-width="1.5" stroke-linecap="round" stroke-linejoin="round"></path> <path opacity="0.64" d="M44 46.2562V51V51.2262M44 46.2562L39.5907 43.7105M44 46.2562L48.4534 43.6851M39.5 44.12V48.3924C39.5 48.6782 39.6525 48.9423 39.9 49.0852L43.6 51.2214C43.8475 51.3643 44.1525 51.3643 44.4 51.2214L48.1 49.0852C48.3475 48.9423 48.5 48.6782 48.5 48.3924V44.12C48.5 43.8342 48.3475 43.5701 48.1 43.4272L44.4 41.291C44.1525 41.1481 43.8475 41.1481 43.6 41.291L39.9 43.4272C39.6525 43.5701 39.5 43.8342 39.5 44.12Z" stroke="#E9EAEC" stroke-width="1.5" stroke-linejoin="round"></path> <path opacity="0.8" d="M35.5 38.5H52.5" stroke="#E9EAEC" stroke-width="1.5" stroke-linecap="square" stroke-linejoin="round"></path> <defs> <filter id="filter0_f_65_125" x="0" y="16" width="88" height="88" filterUnits="userSpaceOnUse" color-interpolation-filters="sRGB"> <feFlood flood-opacity="0" result="BackgroundImageFix"></feFlood> <feBlend mode="normal" in="SourceGraphic" in2="BackgroundImageFix" result="shape"></feBlend> <feGaussianBlur stdDeviation="12" result="effect1_foregroundBlur_65_125"></feGaussianBlur> </filter> <filter id="filter1_b_65_125" x="-24" y="-24" width="136" height="136" filterUnits="userSpaceOnUse" color-interpolation-filters="sRGB"> <feFlood flood-opacity="0" result="BackgroundImageFix"></feFlood> <feGaussianBlur in="BackgroundImageFix" stdDeviation="12"></feGaussianBlur> <feComposite in2="SourceAlpha" operator="in" result="effect1_backgroundBlur_65_125"></feComposite> <feBlend mode="normal" in="SourceGraphic" in2="effect1_backgroundBlur_65_125" result="shape"></feBlend> </filter> <linearGradient id="paint0_linear_65_125" x1="44" y1="24" x2="44" y2="64" gradientUnits="userSpaceOnUse"> <stop stop-color="#0060FF"></stop> <stop offset="1" stop-color="#478CFF"></stop> </linearGradient> </defs> </svg>