<svg fill="none" xmlns="http://www.w3.org/2000/svg" viewBox="0 0 88 88">     <g opacity="0.64" filter="url(#filter0_f_65_219)">         <circle cx="44" cy="60" r="20" fill="#0060FF"></circle>     </g>     <g filter="url(#filter1_b_65_219)">         <rect width="88" height="88" rx="8" fill="white" fill-opacity="0.08"></rect>         <rect x="0.5" y="0.5" width="87" height="87" rx="7.5" stroke="#E9EBED" stroke-opacity="0.12"></rect>     </g>     <circle cx="44" cy="44" r="20" fill="url(#paint0_linear_65_219)"></circle>     <path opacity="0.8" d="M44 50.4706V53C44 53.5523 43.5523 54 43 54H35C34.4477 54 34 53.5523 34 53V45C34 44.4477 34.4477 44 35 44H36.9412" stroke="#E9EAEC" stroke-width="1.5" stroke-linecap="round"></path>     <rect opacity="0.64" x="40.4285" y="40.4285" width="7.14286" height="7.14286" rx="0.8" stroke="#E9EAEC" stroke-width="1.5"></rect>     <path opacity="0.64" d="M51.1429 46.8572V50.3429C51.1429 50.7847 50.7847 51.1429 50.3429 51.1429H46.8572" stroke="#E9EAEC" stroke-width="1.5" stroke-linecap="round"></path>     <path opacity="0.64" d="M36.8571 41.1428L36.8571 37.6571C36.8571 37.2153 37.2153 36.8571 37.6571 36.8571L41.1428 36.8571" stroke="#E9EAEC" stroke-width="1.5" stroke-linecap="round"></path>     <path opacity="0.8" d="M44 37.5294V35C44 34.4477 44.4477 34 45 34H53C53.5523 34 54 34.4477 54 35V43C54 43.5523 53.5523 44 53 44H51.0588" stroke="#E9EAEC" stroke-width="1.5" stroke-linecap="round"></path>     <defs>         <filter id="filter0_f_65_219" x="0" y="16" width="88" height="88" filterUnits="userSpaceOnUse" color-interpolation-filters="sRGB">             <feFlood flood-opacity="0" result="BackgroundImageFix"></feFlood>             <feBlend mode="normal" in="SourceGraphic" in2="BackgroundImageFix" result="shape"></feBlend>             <feGaussianBlur stdDeviation="12" result="effect1_foregroundBlur_65_219"></feGaussianBlur>         </filter>         <filter id="filter1_b_65_219" x="-24" y="-24" width="136" height="136" filterUnits="userSpaceOnUse" color-interpolation-filters="sRGB">             <feFlood flood-opacity="0" result="BackgroundImageFix"></feFlood>             <feGaussianBlur in="BackgroundImageFix" stdDeviation="12"></feGaussianBlur>             <feComposite in2="SourceAlpha" operator="in" result="effect1_backgroundBlur_65_219"></feComposite>             <feBlend mode="normal" in="SourceGraphic" in2="effect1_backgroundBlur_65_219" result="shape"></feBlend>         </filter>         <linearGradient id="paint0_linear_65_219" x1="44" y1="24" x2="44" y2="64" gradientUnits="userSpaceOnUse">             <stop stop-color="#0060FF"></stop>             <stop offset="1" stop-color="#478CFF"></stop>         </linearGradient>     </defs> </svg>