<svg fill="none" xmlns="http://www.w3.org/2000/svg" viewBox="0 0 88 88"> <g opacity="0.64" filter="url(#filter0_f_65_234)"> <circle cx="44" cy="60" r="20" fill="#0060FF"></circle> </g> <g filter="url(#filter1_b_65_234)"> <rect width="88" height="88" rx="8" fill="white" fill-opacity="0.08"></rect> <rect x="0.5" y="0.5" width="87" height="87" rx="7.5" stroke="#E9EBED" stroke-opacity="0.12"></rect> </g> <circle cx="44" cy="44" r="20" fill="url(#paint0_linear_65_234)"></circle> <path opacity="0.8" d="M35.2662 44.9992C34.8664 44.6232 34.5478 44.1693 34.3301 43.6655C34.1123 43.1617 34 42.6187 34 42.0698C34 41.521 34.1123 40.978 34.3301 40.4742C34.5478 39.9704 34.8664 39.5165 35.2662 39.1404C35.6659 38.7644 36.1384 38.4741 36.6546 38.2875C37.1707 38.101 37.7196 38.022 38.2674 38.0555C38.497 38.0334 38.7281 38.0334 38.9577 38.0555C39.21 36.906 39.8475 35.8773 40.7646 35.1397C41.6816 34.4021 42.8231 34 44 34C45.1769 34 46.3184 34.4021 47.2354 35.1397C48.1525 35.8773 48.79 36.906 49.0423 38.0555C49.2719 38.0334 49.503 38.0334 49.7326 38.0555C50.2804 38.022 50.8293 38.101 51.3454 38.2875C51.8616 38.4741 52.3341 38.7644 52.7338 39.1404C53.1336 39.5165 53.4522 39.9704 53.6699 40.4742C53.8877 40.978 54 41.521 54 42.0698C54 42.6187 53.8877 43.1617 53.6699 43.6655C53.4522 44.1693 53.1336 44.6232 52.7338 44.9992" stroke="#E9EAEC" stroke-width="1.5" stroke-linecap="round" stroke-linejoin="round"></path> <g opacity="0.8"> <path d="M38.7233 49.2764L36.6299 52.2753C36.5354 52.4592 36.4911 52.6648 36.5015 52.8713C36.5118 53.0777 36.5764 53.2778 36.6887 53.4514C36.7946 53.6209 36.942 53.7606 37.1169 53.8573C37.2918 53.954 37.4884 54.0046 37.6883 54.0042H50.3428C50.5426 54.0046 50.7393 53.954 50.9142 53.8573C51.0891 53.7606 51.2365 53.6209 51.3424 53.4514C51.4457 53.2726 51.5 53.0698 51.5 52.8634C51.5 52.6569 51.4457 52.4541 51.3424 52.2753L49.3078 49.2764" stroke="#E9EAEC" stroke-width="1.5" stroke-linecap="round" stroke-linejoin="round"></path> <path d="M39.8995 42.22C39.5875 42.22 39.2884 42.3439 39.0679 42.5644C38.8473 42.785 38.7234 43.0841 38.7234 43.396V49.2764H49.308V43.396C49.308 43.0841 49.1841 42.785 48.9635 42.5644C48.743 42.3439 48.4438 42.22 48.1319 42.22H39.8995Z" stroke="#E9EAEC" stroke-width="1.5" stroke-linecap="round" stroke-linejoin="round"></path> </g> <path opacity="0.64" d="M43 52H45" stroke="#E9EAEC" stroke-width="1.5" stroke-linecap="round" stroke-linejoin="round"></path> <path opacity="0.64" d="M40.72 44.22H40.73" stroke="#E9EAEC" stroke-width="1.5" stroke-linecap="round" stroke-linejoin="round"></path> <path opacity="0.64" d="M42.73 44.22H42.74" stroke="#E9EAEC" stroke-width="1.5" stroke-linecap="round" stroke-linejoin="round"></path> <defs> <filter id="filter0_f_65_234" x="0" y="16" width="88" height="88" filterUnits="userSpaceOnUse" color-interpolation-filters="sRGB"> <feFlood flood-opacity="0" result="BackgroundImageFix"></feFlood> <feBlend mode="normal" in="SourceGraphic" in2="BackgroundImageFix" result="shape"></feBlend> <feGaussianBlur stdDeviation="12" result="effect1_foregroundBlur_65_234"></feGaussianBlur> </filter> <filter id="filter1_b_65_234" x="-24" y="-24" width="136" height="136" filterUnits="userSpaceOnUse" color-interpolation-filters="sRGB"> <feFlood flood-opacity="0" result="BackgroundImageFix"></feFlood> <feGaussianBlur in="BackgroundImageFix" stdDeviation="12"></feGaussianBlur> <feComposite in2="SourceAlpha" operator="in" result="effect1_backgroundBlur_65_234"></feComposite> <feBlend mode="normal" in="SourceGraphic" in2="effect1_backgroundBlur_65_234" result="shape"></feBlend> </filter> <linearGradient id="paint0_linear_65_234" x1="44" y1="24" x2="44" y2="64" gradientUnits="userSpaceOnUse"> <stop stop-color="#0060FF"></stop> <stop offset="1" stop-color="#478CFF"></stop> </linearGradient> </defs> </svg>